<?xml version="1.0" standalone="no"?>
<!DOCTYPE svg PUBLIC "-//W3C//DTD SVG 20010904//EN"
 "http://www.w3.org/TR/2001/REC-SVG-20010904/DTD/svg10.dtd">
<svg version="1.0" xmlns="http://www.w3.org/2000/svg"
 width="959.000000pt" height="540.000000pt" viewBox="0 0 959.000000 540.000000"
 preserveAspectRatio="xMidYMid meet">

<g transform="translate(0.000000,540.000000) scale(0.100000,-0.100000)"
fill="#000000" stroke="none">
<path d="M0 2700 l0 -2700 85 0 c50 0 85 4 85 10 0 6 -9 10 -19 10 -20 0 -37
32 -26 50 19 31 78 -10 68 -48 -4 -17 -1 -22 14 -22 14 0 19 7 18 27 0 18 6
29 18 31 13 3 17 -3 17 -27 l0 -30 209 -1 c199 0 210 1 216 19 6 20 41 38 52
27 4 -3 -1 -6 -9 -6 -11 0 -14 -6 -11 -20 5 -19 14 -20 314 -20 274 0 309 2
309 16 0 22 27 46 47 42 22 -4 29 -28 9 -28 -9 0 -16 -7 -16 -15 0 -12 17 -15
89 -15 62 0 91 4 94 13 4 10 6 10 6 0 1 -8 15 -13 39 -13 36 1 37 1 16 18 -11
10 -24 31 -28 47 -11 42 -22 53 -50 48 -17 -4 -27 1 -35 16 -15 27 -22 26 -67
-4 -30 -20 -44 -24 -68 -19 -17 4 -42 9 -56 10 -14 1 -29 3 -34 3 -4 1 -5 21
-2 46 4 26 3 53 -4 65 -9 17 -8 20 8 20 23 0 42 -19 42 -42 0 -25 30 -69 42
-62 5 3 7 12 4 19 -7 19 5 27 20 14 20 -16 51 -1 69 33 19 39 19 58 -1 108
-13 31 -14 44 -5 53 6 6 11 28 11 48 0 20 7 42 15 49 21 17 19 73 -4 101 -17
20 -22 22 -38 11 -10 -6 -28 -16 -40 -21 -11 -6 -24 -15 -28 -20 -3 -6 -10
-11 -16 -11 -12 0 -12 37 1 45 5 3 10 20 10 36 0 17 -4 28 -9 24 -13 -7 -41
34 -41 61 0 12 7 27 15 34 12 10 18 8 35 -11 11 -13 19 -34 18 -45 -2 -14 9
-31 31 -50 l33 -28 -7 55 c-4 30 -11 60 -15 68 -4 7 -3 29 3 47 9 30 8 37 -14
60 -23 25 -37 33 -87 48 -17 6 -22 3 -22 -11 -1 -44 -30 -95 -85 -149 -69 -66
-80 -84 -89 -147 -6 -41 -5 -45 12 -40 10 2 24 -3 31 -11 20 -24 50 -20 61 8
12 32 25 39 48 27 25 -13 37 -82 17 -94 -8 -4 -17 -7 -21 -6 -3 0 -18 -10 -32
-23 -15 -14 -42 -31 -60 -38 -23 -9 -32 -19 -32 -35 0 -12 -9 -30 -20 -40 -25
-23 -25 -41 0 -57 11 -7 20 -22 20 -33 0 -11 6 -30 14 -41 8 -11 13 -39 12
-64 -2 -38 -6 -46 -24 -48 -29 -4 -42 27 -18 40 14 8 16 18 10 51 -10 63 -44
106 -44 57 0 -11 5 -20 10 -20 16 0 11 -33 -10 -60 -20 -25 -20 -25 -20 -2 0
13 -6 22 -15 22 -8 0 -15 -4 -15 -10 0 -5 -8 -10 -17 -10 -9 0 -25 -8 -35 -17
-11 -9 -37 -18 -59 -19 -32 -2 -39 1 -39 16 0 13 5 17 21 13 15 -4 22 0 26 16
3 11 10 21 15 21 6 0 8 9 5 19 -2 10 -1 25 4 32 7 11 12 12 29 1 11 -6 22 -12
25 -12 11 0 4 39 -15 78 -23 48 -24 52 -8 52 7 0 22 -12 34 -28 18 -21 25 -24
35 -15 10 10 9 21 -6 53 -15 34 -16 44 -5 64 7 13 9 29 6 35 -10 16 -36 13
-36 -4 0 -8 -9 -29 -19 -46 l-19 -32 -22 43 -22 43 23 19 c13 10 32 16 41 14
14 -3 15 0 6 20 -8 18 -8 34 2 64 15 46 15 47 -25 53 -21 3 -31 10 -35 28 -4
17 -17 28 -45 37 -22 7 -41 9 -44 4 -3 -5 -16 -12 -27 -16 -18 -5 -24 -1 -34
26 -6 18 -19 49 -27 70 -16 37 -12 58 12 58 16 0 26 38 18 68 -8 33 -60 31
-69 -3 -12 -50 -63 -52 -113 -4 -45 43 -49 86 -14 156 56 114 75 133 148 153
6 1 30 2 53 1 35 -1 45 -5 49 -21 6 -23 76 -67 81 -51 2 6 12 11 23 11 23 0
36 44 19 65 -15 19 -4 52 21 60 10 4 33 -1 50 -9 17 -9 35 -13 40 -10 5 3 9 0
9 -5 0 -6 11 -11 25 -11 21 0 30 -9 45 -42 11 -24 20 -51 20 -60 0 -22 23 -23
44 -3 19 19 30 19 22 -1 -3 -8 -2 -12 4 -9 14 9 13 -48 -1 -62 -15 -15 -2 -66
15 -60 7 3 19 -3 26 -14 11 -14 16 -15 22 -6 6 9 12 9 27 0 17 -11 21 -9 26
10 4 12 13 36 21 54 21 46 9 66 -32 58 -45 -8 -70 7 -84 50 -7 20 -21 45 -33
56 -11 10 -22 27 -23 36 -5 31 -27 64 -43 62 -34 -3 -49 2 -77 26 -16 14 -33
24 -39 24 -35 -4 -57 4 -71 27 -13 19 -14 28 -5 37 18 18 13 55 -9 62 -23 7
-60 -2 -60 -16 0 -18 -39 -9 -45 11 -3 11 -13 20 -21 20 -8 0 -14 5 -14 12 0
6 -3 8 -6 5 -10 -10 -47 20 -51 40 -2 10 -6 39 -9 65 -4 26 -11 45 -15 42 -5
-3 -6 2 -3 10 7 19 20 21 28 4 3 -7 3 -3 0 10 -3 12 -1 22 5 22 6 0 11 9 11
19 0 11 6 22 12 25 11 5 11 7 1 12 -7 3 -13 21 -13 39 0 25 -5 35 -20 40 -15
5 -20 15 -20 41 0 27 -4 34 -20 34 -18 0 -20 7 -20 55 0 48 3 55 19 55 11 0
22 6 25 13 5 9 7 9 12 0 9 -20 24 -15 24 7 0 16 7 20 38 20 21 0 42 4 48 9 16
16 136 20 164 6 19 -10 45 -11 100 -5 41 5 78 9 83 10 4 0 7 6 7 14 0 10 30
14 137 18 92 3 138 9 141 16 2 7 12 12 23 12 10 0 19 4 19 9 0 5 27 12 60 16
33 4 63 11 66 16 3 5 29 9 58 9 30 0 60 6 72 15 23 17 81 20 86 3 5 -15 239
-27 287 -15 19 5 54 7 77 5 24 -2 46 1 49 7 3 7 7 7 10 0 8 -15 95 -11 106 6
5 8 9 26 9 42 0 32 23 36 53 10 18 -17 19 -17 33 2 8 11 20 38 26 60 15 53 33
71 25 25 l-7 -35 20 24 c11 13 20 29 20 37 0 22 21 27 36 8 13 -18 15 -18 34
5 13 15 27 21 39 18 11 -2 32 4 47 14 19 12 30 15 35 7 5 -7 17 -4 37 11 17
11 40 21 52 21 22 0 22 0 -4 -21 -21 -17 -24 -24 -16 -40 6 -11 21 -19 35 -19
14 0 25 -4 25 -8 0 -4 21 -5 47 -2 40 4 47 8 51 30 9 56 11 254 2 270 -5 10
-5 21 0 26 15 16 16 94 1 104 -8 4 -11 15 -8 23 8 21 -14 77 -30 77 -7 0 -13
5 -13 11 0 7 -10 22 -22 34 -35 34 -82 95 -90 116 -4 10 -17 19 -28 19 -16 0
-20 6 -20 36 0 24 -8 46 -24 65 -25 30 -76 168 -76 207 0 20 -3 22 -22 15 -13
-4 -44 -7 -71 -6 -47 2 -58 7 -140 74 -18 14 -46 33 -63 42 -51 26 -105 110
-122 186 -8 36 -14 78 -15 94 0 15 -5 27 -11 27 -19 0 -46 60 -46 101 0 21 -4
39 -10 39 -16 0 -7 103 10 117 12 10 13 15 2 32 -17 29 -15 54 7 98 11 21 25
50 30 66 6 15 17 27 26 27 19 0 20 26 0 34 -21 8 -19 30 5 51 11 10 20 24 20
32 0 7 5 13 11 13 5 0 8 4 4 10 -3 5 3 18 15 30 15 15 29 19 55 16 21 -3 38 1
46 10 9 11 8 14 -5 14 -25 0 -19 29 9 40 15 6 25 17 25 30 0 21 16 28 22 9 7
-20 60 -17 82 5 11 11 34 22 51 23 29 2 29 2 -5 -9 -31 -9 -33 -11 -15 -19 24
-9 85 -12 85 -3 0 4 -7 12 -17 19 -14 11 -13 13 13 19 27 7 94 69 94 88 0 4 6
8 14 8 8 0 17 7 20 16 3 8 11 12 16 9 6 -4 24 -8 41 -10 17 -3 36 -11 43 -19
6 -8 20 -16 31 -18 13 -2 19 -10 17 -23 -3 -14 0 -17 10 -9 20 14 130 9 163
-8 27 -15 31 -14 67 8 21 13 38 22 38 20 0 -3 15 0 33 5 17 6 52 10 76 10 29
0 54 7 74 21 22 16 48 22 100 25 39 2 72 5 75 8 3 2 12 0 22 -5 33 -18 133
-28 153 -16 14 9 21 8 30 -4 9 -12 27 -14 70 -12 50 3 61 1 73 -16 7 -11 27
-22 44 -26 17 -3 51 -21 77 -41 55 -42 70 -44 83 -9 9 22 14 25 41 19 21 -5
34 -3 39 5 6 10 15 10 41 1 19 -6 35 -8 37 -3 1 5 14 7 27 4 14 -2 36 3 51 13
23 15 27 15 43 1 23 -21 38 -20 51 4 11 20 41 17 37 -3 -2 -13 7 -13 36 -2 10
4 17 3 17 -4 0 -6 19 -11 46 -11 41 0 45 -2 39 -20 -6 -19 -3 -20 36 -14 32 5
45 3 53 -9 7 -8 23 -17 36 -19 23 -4 24 -5 5 -12 -11 -4 -31 -13 -45 -19 -25
-11 -25 -11 9 -15 19 -2 54 2 79 8 24 6 46 9 48 7 2 -2 -7 -16 -21 -31 -32
-34 -20 -56 31 -56 19 0 34 -4 34 -10 0 -13 77 -13 85 0 12 20 27 10 20 -12
-3 -13 -7 -29 -7 -35 -1 -7 -5 -13 -10 -13 -4 0 -8 -6 -8 -13 0 -7 -9 -19 -20
-27 -29 -21 -25 -30 16 -30 45 0 94 -28 94 -54 0 -11 7 -27 16 -37 17 -19 12
-39 -10 -39 -12 0 -14 -68 -2 -88 3 -6 2 -20 -2 -33 -5 -13 -6 -37 -2 -54 4
-17 4 -39 0 -50 -4 -11 -3 -35 1 -54 5 -24 3 -43 -6 -61 -8 -15 -12 -30 -9
-33 5 -5 -50 -128 -63 -141 -12 -12 -2 -264 13 -312 17 -58 18 -117 2 -161
-10 -28 -9 -38 5 -62 9 -16 17 -46 17 -66 0 -37 46 -135 64 -135 13 0 137
-128 161 -167 11 -18 40 -58 65 -91 31 -40 55 -86 75 -145 16 -48 32 -87 37
-87 5 0 14 -14 20 -31 6 -17 13 -26 17 -21 6 11 113 28 221 36 36 3 81 10 100
16 19 6 108 13 198 17 89 3 162 10 162 15 0 4 75 7 168 7 92 -1 154 -5 137 -9
-23 -5 -14 -8 43 -11 39 -2 72 0 72 5 0 4 9 6 20 3 11 -3 20 -2 20 3 0 4 39
10 88 14 48 4 98 10 112 12 15 3 20 2 14 -3 -7 -4 18 -9 58 -11 69 -2 188 23
188 40 0 4 26 8 59 8 78 0 121 9 121 26 0 10 13 14 39 14 22 0 41 5 43 12 5
13 58 13 315 -2 92 -5 189 -10 216 -10 33 0 47 -4 47 -14 0 -8 17 -15 49 -19
28 -3 65 -17 87 -32 36 -24 46 -26 144 -26 139 1 149 0 156 -21 3 -10 11 -18
17 -18 7 0 19 -9 27 -20 9 -13 26 -20 47 -20 18 0 33 -4 33 -10 0 -5 9 -10 20
-10 11 0 20 -4 20 -10 0 -5 11 -10 25 -10 13 0 36 -5 50 -12 20 -9 25 -18 25
-45 0 -20 4 -32 10 -28 6 3 10 -4 10 -18 0 -18 -8 -28 -30 -37 -16 -7 -30 -19
-30 -26 0 -8 -7 -14 -15 -14 -9 0 -12 -6 -9 -15 4 -8 1 -15 -5 -15 -6 0 -11
14 -11 30 0 23 -5 30 -19 30 -11 0 -22 6 -24 12 -4 10 -8 10 -15 -1 -6 -9 -19
-11 -35 -7 -31 7 -57 -1 -57 -20 0 -8 -4 -14 -10 -14 -5 0 -10 -9 -10 -20 0
-11 -4 -20 -10 -20 -5 0 -10 -18 -10 -40 0 -34 -3 -40 -21 -40 -18 0 -20 -2
-8 -16 7 -9 14 -46 15 -85 2 -45 8 -74 18 -84 20 -20 26 -19 26 5 0 11 3 20 6
20 11 0 34 -29 34 -44 0 -9 5 -16 10 -16 6 0 10 -7 10 -16 0 -8 7 -22 15 -30
20 -20 20 -64 0 -64 -10 0 -15 -10 -15 -30 0 -16 -4 -30 -10 -30 -5 0 -12 -11
-16 -25 -3 -14 -10 -25 -15 -25 -5 0 -9 -7 -9 -15 0 -8 -7 -15 -15 -15 -8 0
-15 5 -15 10 0 6 -19 10 -42 9 -33 0 -38 -2 -23 -9 14 -6 15 -9 4 -9 -8 -1
-20 4 -27 11 -9 9 -15 9 -24 0 -18 -18 -68 -15 -68 3 0 22 -17 18 -23 -5 -3
-11 -12 -20 -21 -20 -12 0 -16 -10 -16 -40 0 -22 -4 -40 -10 -40 -14 0 -12
-37 3 -43 9 -4 9 -6 0 -6 -15 -1 -18 -31 -3 -31 6 0 10 -18 10 -40 0 -22 -4
-40 -10 -40 -5 0 -10 -7 -10 -16 0 -29 27 -44 79 -44 41 0 51 -3 51 -16 0 -9
9 -25 21 -35 11 -9 20 -20 20 -23 -2 -18 0 -19 9 -6 9 13 14 11 35 -13 14 -15
25 -40 25 -55 0 -34 -24 -113 -33 -113 -4 1 -16 1 -27 1 -11 0 -20 6 -20 14 0
7 -12 16 -26 19 -20 3 -27 -1 -35 -20 -14 -38 -11 -109 6 -123 13 -11 15 -5
15 41 0 41 3 50 12 41 15 -15 48 -16 48 -2 0 6 14 10 30 10 25 0 30 -4 30 -22
-1 -42 -20 -108 -38 -128 -17 -21 -17 -21 -42 10 -23 28 -29 30 -52 21 -15 -5
-32 -19 -38 -31 -6 -11 -15 -20 -21 -20 -6 0 -8 4 -5 9 4 5 -7 12 -24 16 -16
4 -36 15 -44 26 -9 13 -19 17 -31 13 -13 -6 -16 -4 -10 6 5 8 3 11 -6 8 -8 -3
-19 -14 -25 -26 -18 -36 -44 -60 -72 -67 -20 -5 -23 -8 -11 -16 12 -7 12 -9
-1 -9 -13 0 -13 -2 0 -9 8 -6 17 -8 22 -5 4 3 21 -9 38 -25 25 -23 31 -36 28
-62 -2 -18 -8 -34 -15 -36 -7 -3 -10 3 -6 15 7 27 -31 36 -52 12 -20 -22 -16
-39 13 -63 20 -17 23 -27 20 -81 -3 -72 4 -86 40 -86 46 0 102 -20 102 -36 0
-9 7 -14 18 -12 14 3 17 -5 16 -46 0 -34 -5 -51 -17 -58 -9 -5 -17 -18 -17
-29 0 -29 -16 -15 -24 21 -3 18 0 39 7 50 10 17 8 23 -9 40 -17 18 -25 19 -50
10 -35 -14 -45 -28 -37 -58 3 -12 1 -28 -5 -35 -11 -14 0 -113 15 -128 14 -14
45 0 38 19 -7 19 13 42 31 35 19 -7 18 -40 -1 -50 -13 -8 -12 -17 7 -76 19
-54 26 -65 38 -57 22 14 40 12 40 -4 0 -8 7 -16 15 -20 8 -3 15 -12 15 -21 0
-20 16 -19 25 2 7 17 8 16 15 -2 8 -18 9 -17 9 8 1 22 6 27 26 27 20 0 25 -5
25 -23 0 -21 5 -24 46 -26 42 -1 46 1 41 19 -3 11 -1 23 4 26 5 3 9 -6 9 -20
l0 -26 100 1 c104 2 120 10 69 36 -16 8 -18 13 -8 13 11 0 15 8 14 22 -1 13
-3 28 -4 35 0 7 -7 10 -15 7 -8 -3 -16 4 -19 18 -6 22 -7 22 -21 3 -14 -19
-15 -19 -16 -2 0 29 -23 15 -43 -26 -24 -51 -57 -52 -57 -2 0 28 5 38 25 47
14 6 28 22 31 35 4 13 11 23 18 23 22 0 37 -17 30 -33 -3 -10 -1 -17 5 -17 6
0 11 4 11 9 0 5 13 16 29 24 27 13 31 13 45 -2 16 -18 46 -125 46 -165 0 -24
4 -26 40 -26 29 0 40 4 40 15 0 8 -4 15 -10 15 -11 0 -34 40 -26 47 7 7 55
-49 56 -64 0 -8 15 -13 39 -13 39 0 40 1 43 37 2 20 9 38 17 41 10 3 12 -4 6
-37 -6 -34 -4 -41 9 -41 9 0 16 8 16 20 0 11 7 20 15 20 8 0 15 -9 15 -20 0
-19 7 -20 99 -20 l100 0 3 28 c2 15 7 25 13 22 5 -3 8 -15 7 -27 -3 -20 1 -23
31 -23 20 0 38 6 40 13 4 10 6 10 6 0 2 -22 41 -15 41 7 0 11 5 20 10 20 6 0
10 -9 10 -20 0 -19 7 -20 150 -20 l150 0 0 2700 0 2700 -4795 0 -4795 0 0
-2700z m6073 -207 c-7 -2 -19 -2 -25 0 -7 3 -2 5 12 5 14 0 19 -2 13 -5z
m-5451 -536 c2 -12 9 -21 16 -19 17 3 15 -46 -3 -64 -8 -9 -19 -12 -25 -9 -5
3 -10 1 -10 -4 0 -6 -12 -11 -27 -12 -16 0 -22 -3 -14 -6 10 -4 10 -7 1 -13
-14 -9 -60 -1 -60 11 0 5 -10 9 -23 9 -30 0 -68 77 -46 91 11 7 11 9 1 9 -11
0 -10 3 1 14 15 15 86 24 149 18 29 -3 38 -9 40 -25z m8193 -138 c29 -1 30 -1
5 -9 -24 -8 -24 -8 6 -9 64 -2 104 -39 104 -96 0 -30 -13 -38 -60 -38 -49 0
-81 27 -73 64 4 21 1 28 -16 34 -12 3 -21 12 -21 20 0 7 -6 16 -12 18 -7 3 -4
6 7 7 l20 1 -20 10 c-17 8 -17 9 5 4 14 -2 39 -5 55 -6z m228 -172 c-3 -67
-20 -107 -45 -107 -17 0 -19 4 -13 28 5 15 9 48 11 74 3 51 22 83 39 67 6 -6
9 -33 8 -62z m-96 1 c-3 -7 -5 -2 -5 12 0 14 2 19 5 13 2 -7 2 -19 0 -25z
m-8237 -212 c6 -8 21 -16 33 -18 14 -2 24 -14 31 -35 12 -43 -6 -86 -43 -100
-31 -11 -36 -7 -59 62 -21 64 -21 64 -6 58 10 -4 14 2 14 21 0 29 11 33 30 12z
m8630 -206 c3 -27 3 -47 0 -45 -4 3 -16 -2 -26 -10 -24 -18 -57 -19 -51 -2 2
6 -3 17 -11 23 -19 14 -8 64 13 64 8 0 15 -4 15 -10 0 -18 28 1 34 23 8 31 19
14 26 -43z m136 3 c-11 -11 -19 6 -11 24 8 17 8 17 12 0 3 -10 2 -21 -1 -24z
m-896 -118 c0 -25 -8 -40 -34 -63 -33 -29 -33 -30 -19 -60 9 -18 24 -32 36
-34 19 -3 22 -10 25 -64 2 -46 -1 -64 -13 -74 -14 -11 -21 -8 -51 21 -20 19
-45 55 -56 82 -11 26 -24 47 -29 47 -13 0 -11 27 4 42 7 7 16 21 20 31 4 10
11 15 17 12 5 -3 10 1 10 9 0 21 37 40 43 23 3 -6 6 2 6 19 1 31 18 57 33 48
4 -3 8 -20 8 -39z m780 35 c0 -5 -2 -10 -4 -10 -3 0 -8 5 -11 10 -3 6 -1 10 4
10 6 0 11 -4 11 -10z m-8801 -67 c6 -21 11 -58 11 -84 0 -25 5 -50 12 -57 8
-8 8 -15 -1 -26 -11 -13 -16 -13 -43 3 -54 30 -69 59 -57 111 9 40 42 88 61
89 4 1 12 -16 17 -36z m-158 -39 c13 -37 3 -61 -29 -67 -33 -6 -33 -6 -34 32
-2 57 44 83 63 35z m8369 -51 c0 -11 11 -14 51 -11 l51 3 17 -45 c10 -27 15
-62 13 -87 -3 -31 1 -48 18 -71 13 -18 20 -37 16 -47 -7 -19 -26 -11 -26 11 0
24 -29 15 -60 -18 -30 -34 -60 -109 -60 -150 0 -14 -6 -33 -14 -43 -13 -18
-15 -17 -24 18 -13 46 4 115 42 175 14 23 26 50 26 61 0 19 -2 19 -33 6 -28
-12 -38 -12 -60 0 -22 11 -28 11 -38 -1 -6 -8 -11 -25 -11 -39 0 -23 -2 -23
-13 -9 -8 12 -14 14 -19 6 -12 -20 -46 -14 -46 8 0 18 12 33 54 68 9 7 16 22
16 32 0 15 7 20 28 21 15 0 21 3 14 6 -6 2 -10 8 -7 13 3 4 -3 6 -13 3 -14 -3
-22 4 -32 26 -13 33 -7 67 11 56 5 -4 18 0 27 8 33 28 72 29 72 0z m-8720 -97
c0 -3 -4 -8 -10 -11 -5 -3 -10 -1 -10 4 0 6 5 11 10 11 6 0 10 -2 10 -4z
m8940 -6 c0 -5 -5 -10 -11 -10 -5 0 -7 5 -4 10 3 6 8 10 11 10 2 0 4 -4 4 -10z
m75 -30 c40 -15 31 -54 -12 -58 -30 -3 -33 -1 -33 26 0 25 7 42 16 42 1 0 15
-5 29 -10z m320 -39 c-3 -6 -14 -11 -23 -11 -13 0 -13 2 4 14 21 15 30 14 19
-3z m-8725 -45 c13 -34 -17 -111 -37 -95 -16 14 -17 73 -1 99 17 26 27 25 38
-4z m8640 -68 c0 -13 -5 -30 -10 -38 -9 -13 -11 -13 -20 0 -5 8 -8 21 -5 28 3
8 5 25 5 39 0 22 2 23 15 9 8 -8 15 -25 15 -38z m-8537 10 c7 -25 3 -33 -12
-23 -13 8 -15 45 -2 45 5 0 11 -10 14 -22z m7532 -27 c3 -5 1 -12 -4 -16 -12
-7 -41 -64 -41 -79 0 -6 -14 -19 -30 -28 -17 -9 -30 -13 -30 -9 0 13 26 32 33
24 4 -3 7 8 7 26 0 56 45 113 65 82z m843 -7 c39 -19 45 -29 34 -51 -8 -14
-15 -56 -22 -131 0 -1 -3 -1 -7 0 -5 1 -18 -3 -31 -10 -13 -8 -36 -10 -57 -6
-33 6 -35 9 -35 45 0 47 15 57 44 30 12 -12 32 -21 45 -21 20 0 21 3 16 38 -4
20 -11 53 -16 72 -15 57 -15 57 29 34z m-458 -4 c0 -5 -5 -10 -11 -10 -5 0 -7
5 -4 10 3 6 8 10 11 10 2 0 4 -4 4 -10z m-7881 -67 c-7 -37 -5 -52 15 -91 l23
-46 17 33 c20 37 44 38 62 3 10 -20 7 -30 -23 -75 -54 -80 -51 -78 -79 -50
-20 20 -32 24 -55 19 -35 -7 -35 -7 -8 43 11 22 20 50 19 63 -1 13 -2 56 -1
96 1 67 2 71 19 61 16 -10 18 -18 11 -56z m8105 51 c8 -20 -41 -117 -57 -111
-17 5 -31 50 -24 78 4 16 14 25 29 26 12 1 24 7 26 13 5 15 19 12 26 -6z m56
-38 c0 -14 -4 -26 -10 -26 -5 0 -10 9 -10 19 0 11 -4 22 -10 26 -5 3 -7 12 -4
20 9 22 34 -7 34 -39z m-849 -9 c-13 -13 -15 1 -4 30 7 17 8 17 11 -1 2 -10
-1 -23 -7 -29z m257 0 c2 -18 12 -32 27 -39 21 -10 28 -7 54 21 40 43 53 40
50 -10 -4 -43 9 -59 47 -59 21 0 39 -34 28 -51 -2 -4 -36 -11 -75 -15 -39 -4
-65 -10 -59 -14 9 -6 9 -10 -2 -16 -8 -5 -17 -17 -21 -26 -4 -11 -13 -15 -26
-11 -16 4 -22 -2 -30 -35 -9 -33 -16 -40 -41 -44 -27 -4 -30 -2 -30 24 0 15 9
37 20 48 17 17 20 33 20 106 0 47 -5 94 -11 105 -8 15 -7 24 2 35 19 23 44 12
47 -19z m-7973 -22 l6 -30 -15 25 c-17 28 -22 60 -7 45 5 -6 12 -23 16 -40z
m8223 32 c12 -15 5 -84 -10 -93 -29 -18 -53 67 -26 94 15 15 23 15 36 -1z
m-518 -39 c0 -5 -4 -8 -10 -8 -5 0 -10 10 -10 23 0 18 2 19 10 7 5 -8 10 -18
10 -22z m-7480 -20 c0 -7 -5 -20 -10 -28 -8 -12 -10 -9 -10 13 0 15 5 27 10
27 6 0 10 -6 10 -12z m-307 -145 c-5 -59 -9 -72 -35 -98 -24 -24 -29 -26 -25
-10 15 50 27 103 32 138 4 21 11 37 19 37 11 0 13 -15 9 -67z m301 16 c-11
-18 -24 -8 -24 19 1 26 1 26 15 8 8 -10 12 -23 9 -27z m793 13 c13 -8 31 -172
19 -172 -11 0 -31 23 -39 44 -7 18 -8 18 -21 1 -19 -27 -56 -11 -56 24 0 35
19 93 34 103 14 10 48 10 63 0z m6859 -67 c-20 -31 -20 -54 0 -76 10 -11 13
-25 9 -40 -5 -15 -10 -18 -15 -9 -4 6 -10 -10 -14 -39 -4 -34 -11 -51 -21 -51
-11 0 -13 21 -11 115 3 125 13 153 48 134 18 -10 18 -12 4 -34z m312 16 c3
-16 -1 -22 -10 -19 -7 3 -15 15 -16 27 -3 16 1 22 10 19 7 -3 15 -15 16 -27z
m-8108 -20 c0 -22 -4 -43 -10 -46 -6 -4 -10 12 -10 39 0 25 5 46 10 46 6 0 10
-18 10 -39z m8740 0 c0 -15 9 -40 21 -55 14 -17 18 -33 14 -47 -7 -21 -7 -21
-32 3 -35 36 -45 128 -13 128 5 0 10 -13 10 -29z m-8560 -2 c0 -5 -4 -9 -10
-9 -5 0 -10 7 -10 16 0 8 5 12 10 9 6 -3 10 -10 10 -16z m-499 -20 c3 -8 11
-27 15 -44 5 -16 25 -40 44 -53 36 -24 44 -42 23 -49 -7 -3 -18 7 -25 21 -11
26 -17 27 -65 9 -16 -6 -17 21 -1 46 9 14 8 23 -5 42 -10 13 -17 30 -17 37 0
17 21 11 31 -9z m789 11 c0 -5 -4 -10 -10 -10 -5 0 -10 5 -10 10 0 6 5 10 10
10 6 0 10 -4 10 -10z m7650 -19 c0 -6 -4 -13 -10 -16 -5 -3 -10 1 -10 9 0 9 5
16 10 16 6 0 10 -4 10 -9z m-7716 -32 c23 -20 23 -22 7 -50 -19 -34 -35 -33
-39 4 -3 22 -8 27 -32 27 -16 0 -32 5 -35 10 -3 6 4 10 17 10 13 0 30 5 38 10
19 12 16 13 44 -11z m-404 -5 c0 -19 -24 -84 -32 -84 -11 0 -10 5 4 51 6 22
15 39 20 39 4 0 8 -3 8 -6z m8313 -22 c15 -15 32 -42 38 -60 17 -48 57 -37 51
14 -3 22 22 51 32 36 3 -5 0 -24 -7 -41 -11 -29 -10 -34 7 -46 22 -16 15 -45
-11 -45 -10 0 -35 16 -55 35 -75 71 -137 68 -163 -10 -6 -17 -11 -11 -33 33
-24 49 -25 53 -10 69 10 9 31 16 47 16 17 0 32 6 35 14 9 22 40 15 69 -15z
m277 24 c0 -3 -4 -8 -10 -11 -5 -3 -10 -1 -10 4 0 6 5 11 10 11 6 0 10 -2 10
-4z m400 -4 c0 -5 -6 -16 -13 -27 -16 -20 -33 -5 -23 20 6 16 36 21 36 7z
m-8651 -55 c15 -18 26 -77 14 -77 -12 0 -43 54 -43 74 0 20 14 21 29 3z m571
-22 c0 -8 -4 -15 -9 -15 -13 0 -22 16 -14 24 11 11 23 6 23 -9z m-710 -40 c7
-45 -4 -75 -25 -75 -17 0 -20 37 -6 59 6 9 4 23 -7 39 -15 23 -15 24 9 20 20
-2 25 -10 29 -43z m596 20 c4 -14 4 -29 0 -32 -11 -12 -37 23 -30 40 9 25 23
21 30 -8z m7974 -4 c0 -10 -6 -24 -14 -30 -11 -9 -15 -6 -19 16 -5 27 9 47 25
37 4 -3 8 -13 8 -23z m-8817 4 c24 -18 18 -49 -10 -53 -28 -4 -50 32 -32 54
14 17 19 17 42 -1z m8867 0 c0 -8 -4 -15 -10 -15 -5 0 -10 7 -10 15 0 8 5 15
10 15 6 0 10 -7 10 -15z m-8682 -14 c3 -8 -1 -12 -9 -9 -7 2 -15 10 -17 17 -3
8 1 12 9 9 7 -2 15 -10 17 -17z m8397 9 c3 -5 1 -10 -4 -10 -6 0 -11 5 -11 10
0 6 2 10 4 10 3 0 8 -4 11 -10z m-645 -25 c0 -8 -4 -15 -10 -15 -5 0 -7 7 -4
15 4 8 8 15 10 15 2 0 4 -7 4 -15z m-7878 -17 c-7 -7 -12 -8 -12 -2 0 14 12
26 19 19 2 -3 -1 -11 -7 -17z m-244 -21 c17 -48 15 -57 -12 -57 -33 0 -40 14
-26 55 14 44 23 44 38 2z m8791 26 c-4 -22 3 -33 18 -33 16 0 10 -14 -8 -16
-5 -1 -13 -2 -18 -3 -5 0 -22 -14 -38 -31 -33 -36 -53 -38 -53 -7 1 26 14 44
54 75 29 22 47 28 45 15z m-8512 -25 c-3 -8 -6 -5 -6 6 -1 11 2 17 5 13 3 -3
4 -12 1 -19z m7818 -32 c3 -32 1 -35 -16 -25 -22 11 -23 22 -8 51 14 25 19 19
24 -26z m1215 19 c0 -13 -36 -45 -52 -45 -6 0 5 26 25 58 10 15 27 7 27 -13z
m-1310 -20 c0 -30 -30 -42 -47 -19 -25 34 -15 54 22 46 18 -3 25 -11 25 -27z
m-7886 16 c3 -5 -1 -14 -8 -20 -12 -10 -13 -8 -9 8 6 23 9 25 17 12z m8053
-28 c-8 -43 -18 -63 -33 -63 -18 0 -18 12 4 54 20 42 35 47 29 9z m-7320 -15
c-3 -8 -6 -5 -6 6 -1 11 2 17 5 13 3 -3 4 -12 1 -19z m8143 12 c0 -5 -7 -10
-15 -10 -8 0 -15 5 -15 10 0 6 7 10 15 10 8 0 15 -4 15 -10z m-8710 -10 c0 -5
-9 -10 -20 -10 -11 0 -20 5 -20 10 0 6 9 10 20 10 11 0 20 -4 20 -10z m8048
-7 c-27 -56 -33 -63 -55 -63 -33 0 -30 35 5 53 30 16 56 21 50 10z m562 -13
c0 -5 -4 -10 -10 -10 -5 0 -10 5 -10 10 0 6 5 10 10 10 6 0 10 -4 10 -10z
m-80 -39 c0 -5 -9 -11 -20 -14 -20 -5 -26 3 -13 16 9 10 33 8 33 -2z"/>
<path d="M8378 463 c7 -3 16 -2 19 1 4 3 -2 6 -13 5 -11 0 -14 -3 -6 -6z"/>
<path d="M2644 4514 c3 -9 6 -18 6 -20 0 -2 5 -4 10 -4 6 0 10 9 10 20 0 12
-7 20 -16 20 -11 0 -14 -5 -10 -16z"/>
<path d="M5055 4300 c28 -12 37 -12 30 0 -3 6 -16 10 -28 9 -21 0 -21 -1 -2
-9z"/>
<path d="M4480 3760 c0 -5 5 -10 11 -10 5 0 7 5 4 10 -3 6 -8 10 -11 10 -2 0
-4 -4 -4 -10z"/>
<path d="M3193 3685 c-18 -13 -23 -26 -23 -64 0 -57 19 -81 38 -50 7 11 17 17
22 14 5 -3 12 -1 15 5 4 6 16 8 26 5 11 -4 26 -1 34 5 8 6 18 9 23 7 4 -3 13
-2 20 2 15 9 -6 61 -25 61 -6 0 -13 4 -15 10 -6 19 -91 23 -115 5z"/>
<path d="M3980 3679 c-7 -11 -9 -27 -6 -35 6 -16 -10 -19 -19 -4 -11 18 -75
12 -82 -7 -3 -10 -13 -26 -21 -36 -15 -16 -16 -16 -36 0 -16 14 -16 12 3 -9
15 -17 22 -35 18 -47 -4 -18 2 -20 57 -26 77 -8 107 3 146 56 36 50 38 81 8
109 -28 26 -54 26 -68 -1z"/>
<path d="M3383 3101 c-31 -26 -30 -87 2 -151 14 -27 25 -56 25 -65 0 -9 7 -18
15 -21 26 -10 16 -24 -16 -24 l-32 0 6 -56 c3 -30 13 -66 21 -79 21 -32 117
-85 153 -85 75 0 192 71 193 118 1 9 9 35 20 57 11 22 19 43 20 48 0 4 -18 7
-40 7 -32 0 -38 -3 -33 -16 5 -14 3 -15 -16 -4 -17 9 -26 9 -37 -1 -13 -10
-17 -10 -25 2 -16 25 -10 71 16 124 14 28 28 69 32 90 5 32 2 40 -18 56 -32
24 -79 25 -79 1 0 -27 -35 -44 -64 -31 -14 7 -26 19 -28 27 -5 25 -87 27 -115
3z"/>
<path d="M6253 2483 c9 -2 25 -2 35 0 9 3 1 5 -18 5 -19 0 -27 -2 -17 -5z"/>
<path d="M8160 1850 c0 -5 5 -10 10 -10 6 0 10 5 10 10 0 6 -4 10 -10 10 -5 0
-10 -4 -10 -10z"/>
<path d="M8180 1780 c0 -11 5 -20 10 -20 6 0 10 -9 10 -20 0 -11 5 -20 10 -20
6 0 10 9 10 20 0 11 5 20 10 20 16 0 11 27 -6 34 -29 11 -44 6 -44 -14z"/>
<path d="M4943 1762 c-22 -14 -8 -80 25 -121 17 -22 39 -55 49 -75 22 -46 106
-96 160 -95 31 0 34 2 17 9 -17 6 -20 15 -16 35 3 20 7 23 13 13 5 -7 9 -8 9
-2 0 5 -4 14 -9 20 -5 5 -16 32 -25 61 -18 54 -29 63 -77 63 -48 0 -68 16 -75
60 -6 35 -10 40 -33 40 -14 0 -31 -4 -38 -8z"/>
<path d="M2627 1723 c-4 -3 -43 -6 -87 -5 -65 0 -84 -3 -105 -20 -25 -20 -32
-46 -17 -63 5 -6 15 -29 22 -52 7 -24 17 -43 21 -43 5 0 13 -19 20 -42 12 -47
33 -76 64 -88 15 -6 26 0 47 24 l28 31 19 -22 c11 -13 24 -23 30 -23 6 0 11
-7 11 -15 0 -8 5 -15 10 -15 6 0 10 11 10 25 0 29 2 29 63 11 44 -13 47 -13
47 5 0 10 -4 19 -8 19 -17 0 -2 85 17 101 20 17 27 84 10 95 -5 3 -7 21 -3 40
7 39 -2 42 -69 23 -30 -8 -42 -7 -59 6 -23 15 -60 20 -71 8z"/>
<path d="M8130 1650 c0 -20 5 -30 15 -30 10 0 15 10 15 30 0 20 -5 30 -15 30
-10 0 -15 -10 -15 -30z"/>
<path d="M1275 1649 c-4 -13 -10 -17 -14 -11 -4 7 -12 7 -20 3 -14 -9 -10 -43
9 -71 9 -13 11 -13 20 0 6 10 10 11 10 3 0 -7 9 -13 20 -13 18 0 20 7 20 55 0
48 -3 55 -19 55 -11 0 -23 -9 -26 -21z"/>
<path d="M4725 1443 c-15 -99 -17 -91 18 -88 30 2 32 5 35 45 2 29 -2 48 -14
61 -25 27 -32 24 -39 -18z"/>
<path d="M8091 1399 c0 -19 5 -43 10 -54 6 -13 7 -4 3 30 -8 60 -14 72 -13 24z"/>
<path d="M3500 1276 c0 -8 5 -18 10 -21 15 -9 12 -25 -5 -25 -8 0 -24 5 -35
12 -26 17 -37 3 -16 -21 19 -21 94 -57 102 -48 3 3 -2 19 -10 36 -9 16 -16 41
-16 56 0 16 -6 25 -15 25 -8 0 -15 -6 -15 -14z"/>
<path d="M8096 1274 c-3 -9 -6 -24 -6 -34 0 -11 -12 -25 -27 -32 -23 -11 -29
-22 -35 -63 -13 -90 13 -110 71 -56 27 25 33 39 40 102 6 40 8 76 5 80 -2 4 2
10 8 12 8 4 7 6 -4 6 -9 1 -19 -5 -21 -11 -4 -10 -6 -10 -6 0 -1 17 -18 15
-25 -4z"/>
<path d="M3627 1181 c3 -12 10 -21 15 -21 13 0 6 32 -9 37 -7 3 -9 -3 -6 -16z"/>
<path d="M3686 1168 c-10 -38 -7 -46 14 -41 11 3 20 8 20 12 -1 18 -13 51 -20
51 -4 0 -10 -10 -14 -22z"/>
<path d="M5268 1149 c-31 -17 -24 -97 16 -181 34 -73 52 -96 93 -117 17 -9 25
-8 37 4 8 8 32 15 54 15 75 0 85 16 59 92 -17 48 -49 82 -101 107 -22 10 -57
35 -75 55 -36 37 -54 43 -83 25z"/>
<path d="M7872 1111 c-7 -21 -12 -55 -12 -75 0 -53 -14 -74 -44 -69 -25 5 -36
34 -36 94 0 21 -5 29 -18 29 -10 0 -22 4 -27 8 -6 5 -32 17 -58 27 -39 14 -54
15 -73 6 -14 -6 -40 -11 -59 -11 -30 0 -36 -5 -55 -45 l-22 -45 26 -55 c14
-30 29 -55 34 -55 5 0 23 7 38 15 16 8 37 15 48 15 15 0 17 -5 12 -27 -18 -75
-67 -133 -112 -133 -20 0 -72 -60 -99 -114 -28 -56 -33 -106 -10 -106 7 0 18
-8 24 -17 9 -17 11 -16 30 1 25 23 28 78 6 116 -20 34 -19 39 8 33 34 -9 45
-22 40 -44 -4 -13 1 -25 16 -35 11 -8 21 -26 21 -38 0 -14 10 -30 25 -40 31
-20 32 -20 45 5 10 18 6 26 -36 63 -41 38 -46 46 -40 72 4 16 7 35 8 42 1 6 6
12 11 12 5 0 7 8 5 18 -6 21 23 54 30 34 2 -7 10 -12 18 -12 8 0 14 -7 14 -15
0 -9 -6 -12 -16 -8 -12 4 -14 0 -8 -23 8 -33 32 -55 54 -49 8 2 30 7 47 10 29
5 33 2 39 -20 3 -14 4 -39 0 -55 -4 -23 -2 -30 9 -30 9 0 20 -11 27 -24 9 -20
7 -31 -10 -60 -24 -41 -18 -81 13 -81 18 0 21 -10 29 -95 5 -63 13 -98 22
-103 8 -4 14 -15 14 -22 0 -17 -26 -20 -35 -5 -3 6 -10 10 -15 10 -13 0 1 -74
17 -83 9 -6 10 -13 3 -27 -5 -10 -10 -30 -10 -44 0 -17 -6 -26 -16 -26 -12 0
-15 8 -13 34 2 19 -3 41 -10 50 -8 10 -11 26 -7 42 7 28 -12 31 -24 3 -4 -8
-12 -24 -19 -37 -10 -19 -8 -28 9 -52 18 -25 19 -31 6 -36 -8 -3 -17 -12 -20
-20 -4 -11 5 -14 39 -14 42 0 46 2 65 40 11 21 20 47 20 56 0 9 14 37 31 62
17 26 28 53 26 64 -3 10 -1 18 4 18 5 0 9 7 9 15 0 25 17 17 24 -11 5 -17 -1
-40 -15 -69 l-22 -43 22 -36 c13 -20 18 -36 13 -36 -6 0 -17 -3 -26 -6 -12 -5
-16 0 -16 20 0 14 -4 26 -10 26 -13 0 -24 -46 -16 -66 4 -11 2 -15 -8 -11 -8
3 -20 -1 -26 -9 -11 -12 14 -14 180 -14 149 0 191 3 187 13 -2 6 -15 11 -30 9
-21 -3 -29 3 -39 23 -10 21 -13 23 -20 10 -5 -8 -19 -15 -32 -15 -32 0 -41 35
-15 61 26 26 25 43 -2 29 -31 -17 -57 12 -65 72 -4 28 -13 52 -20 55 -22 8
-16 37 12 68 14 15 22 30 19 34 -4 3 -11 -2 -16 -12 -21 -37 -51 -5 -79 86 -6
20 -16 37 -20 37 -17 0 -50 44 -50 67 0 19 10 28 45 43 36 16 45 24 45 45 0
15 -5 24 -12 23 -8 -2 -12 7 -10 23 3 35 -18 51 -61 46 -33 -4 -35 -3 -27 18
5 13 7 25 4 27 -2 3 8 10 24 17 15 8 34 17 42 22 8 5 22 12 31 15 11 4 19 22
23 54 4 27 11 50 16 52 9 3 15 68 12 139 -2 30 -9 41 -40 63 -21 14 -40 26
-43 26 -3 0 -11 -17 -17 -39z m-62 -436 c0 -27 -18 -33 -38 -13 -20 20 -14 38
13 38 20 0 25 -5 25 -25z"/>
<path d="M836 1041 c-4 -7 -5 -15 -2 -18 9 -9 19 4 14 18 -4 11 -6 11 -12 0z"/>
<path d="M1194 998 c-6 -7 -9 -19 -8 -25 1 -7 2 -22 3 -33 2 -31 18 -24 25 11
7 38 -5 67 -20 47z"/>
<path d="M7076 938 c-10 -23 -11 -35 -2 -44 17 -18 23 -9 24 36 2 48 -4 51
-22 8z"/>
<path d="M7310 952 c-34 -3 -70 -26 -70 -44 0 -16 -44 -103 -63 -125 -30 -34
-19 -58 28 -61 53 -3 90 17 90 48 0 42 25 86 66 119 21 18 39 40 39 51 0 19
-6 20 -90 12z"/>
<path d="M1002 857 c-19 -83 -16 -113 17 -149 16 -18 32 -30 36 -27 3 4 7 49
8 101 1 68 -2 100 -12 111 -23 29 -36 19 -49 -36z"/>
<path d="M3197 863 c-9 -8 -9 -56 -1 -77 10 -25 24 -8 24 27 0 35 -12 61 -23
50z"/>
<path d="M2432 812 c-13 -13 -29 -17 -55 -14 -32 4 -107 -20 -107 -33 0 -2 10
-13 22 -25 16 -14 35 -20 70 -20 52 0 88 -24 88 -58 0 -12 14 -25 41 -37 35
-16 42 -17 50 -4 13 21 11 46 -6 79 -14 27 -14 33 0 60 8 16 15 38 15 50 0 17
-6 20 -50 20 -35 0 -55 -5 -68 -18z"/>
<path d="M3893 808 c-27 -16 -33 -26 -33 -54 0 -19 -4 -34 -10 -34 -5 0 -10
-4 -10 -10 0 -5 6 -10 13 -10 7 0 19 -9 27 -20 17 -24 40 -26 40 -4 0 9 13 28
28 42 20 20 28 36 27 60 0 17 3 32 8 32 4 0 5 5 2 10 -10 16 -57 10 -92 -12z"/>
<path d="M3730 800 c0 -5 6 -7 14 -4 19 7 27 -21 16 -51 -10 -26 -24 -32 -35
-15 -3 6 -19 10 -36 10 -35 0 -40 -29 -9 -60 22 -22 40 -26 40 -10 0 6 14 10
30 10 17 0 30 5 30 10 0 6 9 10 21 10 13 0 19 5 15 13 -3 6 -9 20 -12 30 -4 9
-11 17 -16 17 -6 0 -8 9 -5 19 3 14 -2 21 -17 25 -30 8 -36 7 -36 -4z"/>
<path d="M2936 793 c-10 -11 -7 -53 5 -53 15 0 39 26 39 42 0 14 -33 22 -44
11z"/>
<path d="M5760 789 c0 -5 5 -7 10 -4 6 3 10 8 10 11 0 2 -4 4 -10 4 -5 0 -10
-5 -10 -11z"/>
<path d="M4155 766 c-18 -15 -46 -26 -79 -30 l-51 -7 -1 -56 c0 -60 -21 -89
-56 -79 -10 2 -18 0 -18 -4 0 -5 -18 -30 -40 -57 -60 -71 -60 -71 -60 -82 0
-13 33 -31 59 -31 11 0 23 -5 26 -11 9 -13 -14 -99 -26 -99 -4 0 -19 11 -33
25 -14 14 -32 25 -39 25 -8 0 -17 7 -20 15 -5 12 -10 12 -34 0 -31 -16 -53
-19 -53 -7 0 4 8 21 18 37 12 19 19 52 20 88 1 57 1 57 -28 57 -26 0 -30 -4
-30 -29 0 -16 -7 -34 -15 -41 -10 -9 -15 -9 -15 -1 0 15 -50 14 -51 -1 -3 -26
3 -40 22 -59 23 -23 25 -52 4 -69 -12 -10 -20 -6 -46 19 -17 18 -34 30 -36 27
-3 -2 -6 -19 -6 -38 -2 -25 3 -35 21 -43 30 -13 29 -49 -3 -63 -34 -16 -32
-17 -39 20 l-6 31 -23 -21 c-29 -28 -54 -14 -63 36 -9 49 -22 74 -36 66 -7 -4
-8 -3 -4 4 4 7 2 12 -3 12 -6 0 -11 11 -11 24 0 24 -23 41 -41 31 -5 -4 -16
11 -24 32 -19 48 -48 68 -75 53 -22 -12 -26 -46 -9 -83 10 -21 6 -35 -21 -91
-18 -36 -35 -66 -37 -66 -2 0 -17 7 -34 15 -16 9 -35 15 -42 14 -32 -4 -44 5
-70 54 -15 28 -38 57 -51 63 l-24 11 5 -53 c7 -63 -7 -72 -33 -21 -26 51 -35
59 -50 46 -8 -6 -14 -24 -14 -39 0 -15 -9 -39 -20 -53 -25 -31 -25 -32 1 -55
19 -18 19 -21 4 -36 -24 -24 -37 -20 -34 12 3 39 -11 82 -27 82 -8 0 -14 -4
-14 -9 0 -5 -15 -18 -33 -28 -31 -19 -32 -21 -32 -86 0 -40 -4 -66 -10 -64
-16 5 -44 69 -45 100 0 19 -7 30 -23 36 -42 16 -47 31 -38 112 9 82 -1 119
-31 119 -32 0 -38 -39 -12 -83 27 -49 17 -85 -28 -94 -41 -8 -43 -7 -48 29 -4
28 -9 33 -32 31 -22 -1 -27 4 -32 30 -6 29 -8 30 -18 13 -5 -10 -8 -36 -5 -57
3 -26 0 -42 -9 -50 -8 -6 -14 -29 -14 -51 0 -22 -5 -48 -10 -58 -11 -21 -61
-47 -100 -52 -19 -2 -26 -10 -28 -30 -3 -28 -31 -40 -33 -15 -5 79 -5 82 21
82 14 0 38 10 54 22 16 13 32 20 37 17 18 -10 9 19 -21 72 -27 46 -34 52 -56
48 -14 -3 -36 -11 -48 -19 -13 -8 -25 -12 -29 -9 -3 3 -9 -16 -13 -43 -3 -26
-9 -52 -11 -56 -9 -15 -59 42 -83 93 -25 53 -44 63 -55 29 -5 -16 0 -28 19
-46 55 -50 15 -158 -56 -151 -46 4 -58 31 -29 62 23 25 23 25 4 49 -11 14 -25
51 -32 84 -19 82 -20 85 -32 78 -10 -7 -8 -64 7 -167 6 -37 5 -38 -24 -32 -23
5 -33 1 -44 -15 -15 -21 -16 -20 -28 24 -11 38 -10 51 1 73 7 15 15 30 17 34
2 5 -8 12 -22 17 -23 9 -24 13 -16 42 7 25 6 39 -5 56 -8 12 -15 34 -15 48 0
14 -17 58 -38 97 -21 40 -38 84 -38 98 1 27 -31 60 -58 60 -25 0 -19 -25 14
-60 39 -42 39 -75 -2 -118 -22 -23 -29 -36 -20 -39 34 -13 72 -57 78 -91 8
-52 25 -105 37 -120 11 -14 17 -252 6 -252 -3 0 -13 18 -22 40 -12 30 -19 38
-32 34 -10 -4 -15 -16 -14 -33 1 -14 -1 -38 -6 -54 -12 -43 11 -87 45 -87 16
0 31 6 33 13 4 9 6 9 6 0 1 -15 49 -17 85 -3 19 7 26 17 26 37 0 39 -10 50
-49 60 -39 10 -48 34 -24 69 19 30 33 31 30 1 -1 -16 6 -26 31 -36 26 -12 32
-20 31 -40 -1 -15 -1 -43 -1 -63 l2 -38 46 0 47 0 -6 40 c-4 30 -2 40 9 40 8
0 14 -7 14 -15 0 -8 5 -26 12 -40 l11 -25 194 0 c111 0 193 4 193 9 0 5 -13
23 -30 39 -34 34 -36 44 -16 61 11 9 18 6 34 -16 17 -23 24 -26 39 -17 16 10
18 7 14 -32 l-3 -44 222 0 c201 0 224 2 236 18 12 16 13 16 19 0 7 -17 61 -18
941 -18 616 0 934 3 934 10 0 13 37 13 45 0 4 -6 99 -10 251 -10 243 0 246 0
265 23 l19 22 6 -23 c6 -20 11 -22 43 -17 19 3 40 10 45 15 15 15 26 12 26 -5
0 -12 13 -15 59 -15 l60 0 -6 36 c-7 41 5 54 49 54 30 0 44 -15 30 -33 -5 -7
-13 -22 -16 -34 -6 -20 -4 -23 18 -23 24 0 26 3 26 46 0 28 6 51 16 61 11 11
13 24 7 47 -12 49 -4 123 17 164 32 63 35 89 10 102 -18 10 -22 9 -27 -9 -3
-12 -9 -21 -14 -21 -5 0 -9 -12 -9 -27 0 -16 -4 -34 -9 -42 -7 -12 -14 -9 -33
12 -18 21 -27 24 -45 17 -26 -11 -31 -30 -8 -30 8 0 15 -4 15 -9 0 -5 3 -16 6
-25 4 -11 0 -16 -13 -16 -38 0 -55 -37 -29 -62 30 -30 27 -52 -10 -71 -44 -21
-73 -22 -81 -1 -6 17 24 84 39 84 4 0 8 7 8 16 0 12 -7 15 -30 12 -32 -5 -38
4 -38 57 0 17 -2 35 -4 41 -2 5 16 28 40 50 32 31 42 48 42 72 0 27 4 32 25
32 14 0 34 -11 47 -25 17 -20 31 -25 65 -25 49 0 56 9 45 60 -9 37 -11 38 -79
24 -28 -5 -34 -3 -44 20 -16 35 -66 36 -107 1 -36 -31 -42 -31 -42 -4 0 12 -5
50 -12 85 l-11 64 -38 0 c-28 0 -43 -7 -61 -27 -39 -46 -54 -54 -82 -47 -18 4
-32 18 -41 40 -17 40 -37 43 -55 9 -16 -30 -50 -33 -68 -5 -13 22 -48 27 -54
9 -3 -8 -14 -7 -35 5 -18 9 -42 16 -54 16 -11 0 -30 11 -41 25 -11 14 -26 25
-34 25 -8 0 -14 5 -14 10 0 6 -11 -1 -25 -15 -14 -14 -34 -25 -45 -25 -10 0
-23 -6 -27 -14 -4 -8 -21 -17 -37 -20 -32 -6 -55 -31 -56 -63 0 -23 -46 -66
-64 -60 -6 2 -15 22 -20 45 -16 69 -46 54 -52 -25 -1 -25 -5 -47 -7 -49 -3 -3
-22 -7 -43 -10 -34 -4 -36 -3 -14 6 22 9 25 17 27 60 1 50 1 50 -31 50 -24 0
-40 9 -63 35 -38 43 -58 44 -78 6 -8 -16 -32 -37 -52 -48 -21 -10 -39 -26 -41
-35 -5 -28 38 -117 54 -111 20 8 18 -24 -5 -53 -18 -22 -19 -23 -24 -5 -3 13
-17 22 -38 26 -19 4 -43 13 -53 20 -17 13 -18 19 -7 72 7 39 19 64 35 78 13
11 27 35 30 53 3 17 9 46 12 63 11 52 -33 66 -81 25z m572 -248 c37 -35 46
-63 11 -31 -13 11 -33 26 -45 32 -13 6 -23 16 -23 21 0 19 24 10 57 -22z
m-627 -7 c14 -28 13 -71 -3 -77 -8 -3 -26 0 -40 5 -31 12 -36 45 -10 73 21 23
40 23 53 -1z m1296 -226 c8 -42 3 -49 -25 -40 -25 8 -37 41 -21 60 21 25 39
17 46 -20z m-1576 -30 c16 -30 7 -43 -15 -21 -9 9 -23 16 -31 16 -15 0 -19 12
-7 23 14 15 40 6 53 -18z m-810 -44 c16 -31 12 -33 -20 -14 -35 20 -39 33 -10
33 10 0 24 -9 30 -19z m-1104 -46 c15 -20 25 -38 22 -40 -9 -9 -68 41 -68 58
0 27 16 20 46 -18z m3545 -43 c6 -18 9 -35 7 -38 -5 -5 -58 74 -58 87 0 21 41
-18 51 -49z m-2553 26 c-2 -12 -8 -23 -14 -25 -17 -6 -27 29 -12 39 22 13 30
9 26 -14z m728 -46 c-31 -4 -52 10 -42 27 5 7 17 5 39 -6 l32 -18 -29 -3z
m1664 19 c0 -11 -5 -23 -11 -26 -5 -4 -14 -18 -19 -31 -5 -13 -16 -24 -25 -24
-14 0 -14 4 0 37 26 61 55 84 55 44z m-2460 -16 c0 -8 -4 -15 -10 -15 -5 0
-10 7 -10 15 0 8 5 15 10 15 6 0 10 -7 10 -15z m1878 -7 c-4 -31 -25 -33 -30
-3 -4 20 -1 25 14 25 14 0 19 -6 16 -22z m-2688 -3 c0 -8 -7 -15 -15 -15 -16
0 -20 12 -8 23 11 12 23 8 23 -8z m156 4 c3 -6 20 -19 37 -30 l31 -18 -39 5
c-59 8 -65 11 -65 34 0 21 24 28 36 9z m2982 -1 c-6 -18 -28 -21 -28 -4 0 9 7
16 16 16 9 0 14 -5 12 -12z m-180 -26 c-2 -8 -8 -17 -14 -19 -13 -4 -27 24
-19 37 9 14 36 -1 33 -18z m-2858 -11 c0 -15 -29 -33 -45 -27 -28 10 -17 36
15 36 17 0 30 -4 30 -9z m1310 -1 c0 -5 -7 -10 -15 -10 -8 0 -15 5 -15 10 0 6
7 10 15 10 8 0 15 -4 15 -10z m-1490 -19 c6 -12 6 -22 1 -25 -10 -7 -41 20
-41 35 0 17 29 9 40 -10z"/>
<path d="M2991 764 c0 -11 3 -14 6 -6 3 7 2 16 -1 19 -3 4 -6 -2 -5 -13z"/>
<path d="M7310 728 c0 -24 12 -58 20 -58 9 0 18 41 12 58 -5 16 -32 16 -32 0z"/>
<path d="M1902 691 c-14 -32 -5 -101 25 -178 6 -17 9 -27 12 -38 0 -3 10 2 20
12 16 15 19 29 16 73 -5 82 -15 116 -39 139 l-21 20 -13 -28z"/>
<path d="M5919 678 c-3 -28 3 -52 16 -64 11 -11 14 -11 19 1 3 8 1 15 -4 15
-6 0 -10 11 -10 24 0 26 -19 47 -21 24z"/>
<path d="M1840 670 c-8 -5 -18 -6 -22 -4 -9 6 -11 -18 -2 -40 8 -20 28 -20 48
0 29 29 9 64 -24 44z"/>
<path d="M7158 615 l-26 -15 34 -36 33 -37 67 6 c78 8 97 24 80 69 -11 30 -20
32 -81 18 -25 -6 -44 -5 -49 0 -13 13 -26 12 -58 -5z"/>
<path d="M6811 543 c1 -64 10 -93 30 -93 5 0 9 10 9 23 0 13 5 28 12 35 17 17
55 15 66 -4 8 -14 12 -14 30 -3 12 8 22 24 22 36 0 21 -5 23 -46 23 -37 0 -50
5 -66 25 -11 14 -28 25 -38 25 -17 0 -19 -8 -19 -67z"/>
<path d="M3642 548 c-5 -7 -7 -21 -3 -31 5 -14 8 -12 18 13 11 31 4 40 -15 18z"/>
<path d="M2815 540 l-20 -8 20 -7 c11 -3 28 -11 37 -16 25 -13 28 -12 28 16 0
19 -5 25 -22 24 -13 0 -32 -4 -43 -9z"/>
<path d="M5970 535 c0 -8 2 -15 4 -15 2 0 11 -3 20 -6 23 -9 20 13 -4 26 -16
9 -20 8 -20 -5z"/>
<path d="M6140 530 c-13 -8 -12 -11 5 -24 20 -15 20 -15 1 -16 -20 0 -20 0 0
-16 10 -8 13 -13 7 -9 -7 3 -13 1 -13 -4 0 -17 37 -13 44 5 3 8 -1 28 -9 45
-18 33 -15 32 -35 19z"/>
<path d="M3434 515 c-4 -10 -2 -26 4 -36 7 -10 9 -26 5 -36 -6 -16 -5 -16 9
-5 9 7 25 12 35 10 15 -2 17 3 14 32 -4 42 0 37 -33 45 -21 5 -29 3 -34 -10z"/>
<path d="M6595 508 c8 -38 25 -45 25 -10 0 21 -5 32 -14 32 -10 0 -13 -8 -11
-22z"/>
<path d="M7190 486 c0 -14 5 -28 10 -31 6 -4 10 7 10 24 0 17 -4 31 -10 31 -5
0 -10 -11 -10 -24z"/>
<path d="M7590 499 c0 -15 23 -36 36 -32 18 6 36 -24 29 -47 -3 -11 -13 -20
-21 -20 -12 0 -14 -11 -12 -52 2 -28 8 -53 14 -55 7 -2 10 5 7 20 -6 28 13 45
30 28 9 -9 9 -16 0 -29 -8 -14 -7 -26 3 -52 8 -18 13 -40 12 -49 -2 -8 5 -17
16 -19 14 -3 17 0 13 11 -3 9 0 18 8 20 9 4 12 18 9 44 -7 73 -17 118 -30 138
-7 11 -16 37 -20 58 -7 43 -26 56 -51 36 -13 -11 -17 -11 -20 -1 -6 15 -23 16
-23 1z"/>
<path d="M1980 481 c0 -20 17 -37 27 -28 7 8 -7 47 -18 47 -5 0 -9 -9 -9 -19z"/>
<path d="M6966 466 c3 -14 1 -41 -6 -60 -6 -19 -13 -47 -16 -63 -3 -15 -9 -29
-15 -31 -5 -2 -9 -14 -9 -27 0 -13 -6 -30 -13 -37 -16 -15 -30 -78 -19 -78 5
0 15 14 23 32 19 44 36 46 47 6 11 -43 34 -42 43 2 9 40 -3 52 -40 43 -23 -6
-24 -5 -17 38 4 24 10 46 15 49 12 9 51 98 51 119 0 17 -18 31 -41 31 -5 0 -7
-11 -3 -24z"/>
<path d="M7260 451 c0 -10 9 -21 21 -24 11 -3 23 -15 26 -26 3 -12 12 -21 21
-21 8 0 20 -7 26 -15 14 -19 56 -9 56 14 0 26 -8 30 -40 21 -26 -7 -31 -4 -54
31 -28 41 -56 52 -56 20z"/>
<path d="M6862 388 c11 -34 38 -71 46 -64 7 7 -20 80 -32 88 -21 14 -25 8 -14
-24z"/>
<path d="M7196 395 c-11 -16 -26 -25 -42 -25 -17 0 -28 -7 -31 -19 -3 -11 -14
-22 -25 -24 -24 -7 -15 -27 13 -27 11 0 23 10 29 24 12 33 27 40 35 16 4 -14
15 -20 36 -20 28 0 29 1 29 50 0 57 -17 66 -44 25z"/>
<path d="M7550 389 c0 -5 6 -7 13 -3 10 6 10 4 0 -7 -7 -7 -13 -27 -13 -44 0
-17 -4 -35 -8 -41 -5 -5 0 -25 10 -44 l18 -35 0 32 c0 17 5 35 10 38 6 3 10
31 10 61 0 47 -2 54 -20 54 -11 0 -20 -5 -20 -11z"/>
<path d="M6995 370 c-3 -5 -1 -10 4 -10 6 0 11 5 11 10 0 6 -2 10 -4 10 -3 0
-8 -4 -11 -10z"/>
<path d="M1500 336 c0 -41 10 -54 48 -67 40 -13 72 -43 72 -67 0 -11 3 -12 14
-3 9 8 14 33 14 74 0 34 -2 56 -5 50 -8 -21 -44 -15 -69 12 -31 34 -74 34 -74
1z"/>
<path d="M6720 340 c0 -11 5 -20 10 -20 6 0 10 9 10 20 0 11 -4 20 -10 20 -5
0 -10 -9 -10 -20z"/>
<path d="M5864 323 c-22 -23 -25 -35 -21 -70 2 -23 12 -49 21 -58 9 -9 16 -20
16 -25 0 -5 10 -10 23 -12 12 -2 20 -7 17 -13 -3 -5 -13 -8 -22 -7 -10 2 -18
-3 -18 -10 0 -9 16 -13 49 -14 49 -2 50 -1 66 38 8 22 13 49 10 59 -7 20 -30
26 -40 9 -3 -5 -15 -10 -26 -10 -15 0 -19 7 -19 31 0 29 2 31 30 27 17 -3 30
0 30 6 0 6 3 20 6 31 4 16 -2 23 -29 33 -49 18 -65 15 -93 -15z"/>
<path d="M7415 314 c-8 -20 -15 -40 -15 -44 0 -4 -7 -10 -15 -14 -24 -9 -19
-98 9 -161 14 -30 22 -62 19 -74 -4 -17 -1 -21 17 -21 17 0 20 4 15 20 -5 15
-2 20 13 20 11 0 22 -9 25 -20 7 -27 73 -28 93 -2 13 16 13 16 14 0 0 -15 9
-18 45 -18 l45 0 0 44 c0 25 -4 48 -10 51 -5 3 -10 23 -10 43 -1 36 -34 92
-47 78 -3 -3 -3 -6 1 -6 4 0 0 -7 -8 -16 -9 -8 -16 -25 -16 -37 0 -21 -1 -21
-13 2 -28 56 -47 28 -47 -72 0 -43 -3 -57 -12 -54 -9 3 -12 20 -10 52 2 35 0
46 -10 43 -7 -3 -14 -14 -16 -25 -2 -13 -12 -23 -27 -25 -19 -4 -26 1 -35 23
-11 25 -9 31 22 62 39 38 68 99 51 104 -5 2 -8 15 -5 28 11 60 -49 75 -73 19z
m211 -236 c1 -23 -2 -25 -25 -19 -27 8 -37 30 -27 58 6 14 9 14 29 0 12 -8 22
-25 23 -39z"/>
<path d="M6373 325 c-15 -16 -17 -39 -4 -30 5 3 12 -4 16 -15 4 -13 15 -20 30
-20 13 0 27 -4 30 -10 10 -16 25 -11 25 8 0 20 -29 52 -47 52 -6 0 -13 7 -17
15 -7 19 -17 19 -33 0z"/>
<path d="M6530 301 c-15 -29 -12 -41 10 -41 16 0 20 7 20 30 0 34 -14 39 -30
11z"/>
<path d="M6725 277 c-4 -20 -4 -44 -1 -55 5 -15 -1 -26 -24 -42 -26 -18 -30
-28 -30 -67 0 -26 -6 -53 -14 -62 -13 -14 -13 -19 0 -35 13 -19 14 -19 14 6 0
14 6 31 14 37 7 6 16 24 19 40 3 15 17 53 31 84 29 63 33 99 12 117 -12 9 -16
6 -21 -23z"/>
<path d="M7331 294 c0 -11 3 -14 6 -6 3 7 2 16 -1 19 -3 4 -6 -2 -5 -13z"/>
<path d="M6126 293 c-3 -4 -6 -19 -6 -34 0 -22 6 -30 25 -35 32 -8 39 -1 32
28 -7 24 -40 51 -51 41z"/>
<path d="M6785 287 c-12 -10 -15 -18 -9 -28 14 -22 11 -109 -4 -109 -11 0 -72
-118 -72 -141 0 -5 56 -9 125 -9 78 0 125 4 125 10 0 6 -11 8 -25 4 -18 -4
-27 -1 -31 10 -3 9 -15 16 -25 16 -15 0 -19 7 -19 32 0 30 0 31 -20 13 -23
-21 -27 -5 -6 28 22 37 39 114 32 152 -6 28 -12 35 -30 35 -12 0 -30 -6 -41
-13z"/>
<path d="M7186 245 c-10 -28 -7 -45 9 -45 8 0 15 -4 15 -10 0 -5 -7 -10 -16
-10 -15 0 -16 -9 -10 -67 12 -116 10 -113 76 -113 44 0 59 4 64 16 9 24 7 34
-8 34 -7 0 -20 7 -27 16 -7 9 -23 20 -36 25 -24 9 -26 17 -27 124 -1 42 -27
62 -40 30z m74 -225 c0 -5 -9 -10 -20 -10 -11 0 -20 5 -20 10 0 6 9 10 20 10
11 0 20 -4 20 -10z"/>
<path d="M6056 215 c-2 -7 1 -25 7 -39 12 -27 31 -34 42 -16 3 6 0 10 -7 10
-10 0 -10 2 0 8 9 6 6 14 -12 29 -19 17 -26 18 -30 8z"/>
<path d="M6258 205 c-6 -14 -17 -21 -27 -18 -12 3 -23 -12 -43 -57 -15 -34
-31 -59 -37 -56 -5 4 -12 2 -16 -4 -4 -6 -11 -8 -16 -4 -16 9 -39 -16 -39 -42
0 -19 5 -24 25 -24 19 0 25 5 25 22 l0 21 23 -21 c22 -21 33 -22 175 -22 101
0 152 4 152 11 0 20 -21 49 -35 49 -19 0 -19 19 1 41 11 12 13 22 5 36 -5 10
-12 25 -14 34 -3 9 -15 19 -26 22 -16 4 -21 0 -21 -13 0 -11 -4 -22 -10 -25
-5 -3 -10 -14 -10 -24 0 -29 -25 -45 -40 -26 -11 13 -11 20 0 40 20 37 6 72
-31 77 -25 4 -33 0 -41 -17z m-5 -55 c6 -24 -8 -36 -17 -14 -8 22 -7 34 3 34
5 0 11 -9 14 -20z"/>
<path d="M1540 210 c0 -5 5 -10 10 -10 6 0 10 5 10 10 0 6 -4 10 -10 10 -5 0
-10 -4 -10 -10z"/>
<path d="M7268 188 c-20 -45 -12 -69 13 -37 l18 24 26 -27 c22 -24 45 -36 45
-24 0 2 -16 20 -35 40 -19 21 -35 42 -35 47 0 20 -17 7 -32 -23z"/>
<path d="M7081 187 c-12 -14 -19 -31 -16 -39 5 -13 10 -12 31 7 23 21 33 55
16 55 -5 0 -18 -11 -31 -23z"/>
<path d="M6489 188 c-1 -2 -2 -21 -4 -43 -2 -35 3 -44 34 -72 42 -38 57 -41
66 -13 5 15 -2 32 -22 56 -15 20 -32 44 -38 55 -8 16 -32 26 -36 17z"/>
<path d="M6585 130 c-12 -19 5 -30 25 -17 11 6 20 15 20 19 0 12 -38 10 -45
-2z"/>
<path d="M6890 119 c0 -25 33 -22 38 4 2 12 -3 17 -17 17 -15 0 -21 -6 -21
-21z"/>
<path d="M5780 101 c0 -17 -9 -46 -21 -65 l-21 -36 60 0 c53 0 60 2 66 22 10
40 7 49 -16 46 -18 -2 -22 1 -20 15 4 22 -15 47 -34 47 -9 0 -14 -11 -14 -29z"/>
<path d="M6050 101 c0 -10 30 -24 37 -17 3 3 2 9 -2 15 -8 13 -35 15 -35 2z"/>
<path d="M6981 72 c-7 -17 -10 -40 -6 -51 6 -19 14 -21 95 -21 69 0 89 3 94
15 7 18 -35 21 -66 4 -19 -10 -26 -6 -63 36 l-41 48 -13 -31z"/>
<path d="M8090 90 c0 -5 5 -10 10 -10 6 0 10 5 10 10 0 6 -4 10 -10 10 -5 0
-10 -4 -10 -10z"/>
<path d="M5991 69 c-14 -5 -39 -8 -55 -7 -28 3 -31 0 -34 -30 -3 -27 0 -32 17
-32 13 0 19 5 15 14 -3 8 0 17 6 21 11 7 29 1 81 -26 24 -12 28 -2 16 37 -11
37 -11 37 -46 23z"/>
<path d="M7350 70 c0 -5 5 -10 10 -10 6 0 10 5 10 10 0 6 -4 10 -10 10 -5 0
-10 -4 -10 -10z"/>
</g>
</svg>
